<svg viewBox="30.498 29.687 81.89 60" xmlns="http://www.w3.org/2000/svg"><g fill="#fff"><path d="m14.57 19.673v3.356s0 5.27-4.773 5.27-4.797-5.282-4.797-5.282v-14.367s0-5.27 4.846-5.27 4.724 5.27 4.724 5.27v3.356h-3.343v-3.356s.133-1.781-1.381-1.781c-1.211 0-1.211 1.793-1.211 1.793v14.355s0 1.793 1.211 1.793c1.49 0 1.357-1.793 1.357-1.793v-3.344z" transform="translate(26.708 26.307)"/><path d="m19.273 28.3c-4.846 0-4.773-5.27-4.773-5.27v-14.38s0-5.27 4.773-5.27 4.773 5.27 4.773 5.27v14.367s.036 5.283-4.773 5.283zm0-21.429c-1.211 0-1.211 1.793-1.211 1.793v14.353s-.062 1.792 1.211 1.792 1.211-1.793 1.211-1.793v-14.366s.049-1.781-1.211-1.781z" transform="translate(28.717 26.307)"/><path d="m33.906 3.6v19.382s0 5.27-4.773 5.27-4.773-5.27-4.773-5.27v-19.382h3.634v19.382s-.061 1.793 1.211 1.793 1.211-1.793 1.211-1.793v-19.382z" transform="translate(30.801 26.354)"/><path d="m38.18 15.278-.3-1.127h-.194v13.834h-3.286v-24.385h3.15l3.489 12.707.3 1.127h.194v-13.834h3.283v24.385h-3.15z" transform="translate(32.923 26.354)"/><path d="m44.18 7.274v-3.634h10.345v3.634h-3.38v20.7h-3.545v-20.7z" transform="translate(34.991 26.362)"/><path d="m53.87 3.6h8.189v3.634h-4.6v6.408h3.319v3.913h-3.322v6.7h4.615v3.634h-8.2z" transform="translate(37.039 26.354)"/><path d="m68.691 27.985-1.891-10.285h-.957v10.285h-3.633v-24.385h3.634c4.256 0 6.056 2.423 6.056 7.038 0 2.423-.63 4.615-1.987 5.536l2.287 11.811zm-2.811-20.836v7.268c.993 0 2.653-.133 2.653-3.634s-1.659-3.634-2.653-3.634z" transform="translate(38.802 26.354)"/><path d="m4.84 56.945v-24.385h3.15c4.276 0 6.529 1.623 6.529 6.469a5.718 5.718 0 0 1 -2.219 5.039s2.5 1.139 2.5 5.984c0 3.634-1.211 6.735-5.536 6.9zm3.634-20.836v6.505c.666 0 2.653.1 2.653-3.247s-2.035-3.259-2.7-3.259zm0 9.788v7.5c.666 0 2.653.267 2.653-3.743s-2.035-3.754-2.701-3.754z" transform="translate(26.675 32.475)"/><path d="m14 56.945 3.634-24.385h4.373l3.634 24.385h-3.391l-.666-4.979h-3.453l-.666 4.979zm6.057-16.463-.1-.63h-.194l-.1.63-1.03 7.692h2.423z" transform="translate(28.611 32.475)"/><path d="m25.05 32.56h3.634v21.066h4.749v3.319h-8.383z" transform="translate(30.947 32.475)"/><path d="m32.58 56.945 3.634-24.385h4.373l3.634 24.385h-3.38l-.666-4.979h-3.452l-.666 4.979zm6.057-16.451-.1-.63h-.194l-.1.63-1.03 7.692h2.423z" transform="translate(32.538 32.475)"/><path d="m47.42 44.238-.3-1.127h-.194v13.834h-3.286v-24.385h3.186l3.474 12.647.3 1.127h.2v-13.774h3.283v24.385h-3.175z" transform="translate(34.876 32.475)"/><path d="m63.816 48.631v3.356s0 5.27-4.773 5.27-4.773-5.27-4.773-5.27v-14.367s0-5.27 4.773-5.27 4.773 5.27 4.773 5.27v3.356h-3.344v-3.356s.133-1.793-1.357-1.793c-1.211 0-1.211 1.793-1.211 1.793v14.354s0 1.793 1.211 1.793c1.49 0 1.357-1.793 1.357-1.793v-3.343z" transform="translate(37.123 32.431)"/><path d="m63.93 32.56h8.2v3.634h-4.614v6.406h3.319v3.913h-3.319v6.7h4.615v3.634h-8.2z" transform="translate(39.165 32.475)"/></g><path d="m4 30.2v-3.63h81.89v3.63z" fill="#0098ce" transform="translate(26.497 31.209)"/></svg>