<svg version="1.1" id="Calque_1" xmlns="http://www.w3.org/2000/svg" xmlns:xlink="http://www.w3.org/1999/xlink" x="0px" y="0px"
	 width="300px" height="145px" viewBox="0 0 300 145" enable-background="new 0 0 300 145" xml:space="preserve" onload="init(evt)">
  
  <script type="text/ecmascript"><![CDATA[
  	var svgNS = "http://www.w3.org/2000/svg";
  //Code from https://www.petercollingridge.co.uk/blog/svg-animation-rotating-elements

	function init(evt)
	{
		if ( window.svgDocument == null )
		{
			svgDocument = evt.target.ownerDocument;
		}
		addRotateTransform('gear-1', 12.8, 1);
		addRotateTransform('gear-2', 16, -1);
		addRotateTransform('gear-3', 6.4, 1);
	}

	function addRotateTransform(target_id, speed, direction)
	{
		var element_to_rotate = svgDocument.getElementById(target_id);
		var my_transform = svgDocument.createElementNS(svgNS, "animateTransform");

		var bb = element_to_rotate.getBBox();
		var cx = bb.x + bb.width/2;
		var cy = bb.y + bb.height/2;

		my_transform.setAttributeNS(null, "attributeName", "transform");
		my_transform.setAttributeNS(null, "attributeType", "XML");
		my_transform.setAttributeNS(null, "type", "rotate");
		my_transform.setAttributeNS(null, "dur", speed + "s");
		my_transform.setAttributeNS(null, "repeatCount", "indefinite");
		my_transform.setAttributeNS(null, "from", "0 "+cx+" "+cy);
		my_transform.setAttributeNS(null, "to", 360*direction+" "+cx+" "+cy);

		element_to_rotate.appendChild(my_transform);
		my_transform.beginElement();
	}
  ]]></script>
  
<path id="gear-1" class="gear-1" fill="#CCCCCC" d="M287.811,80.678l-9.977-2.212c-0.448-2.648-1.118-5.219-1.998-7.693l7.544-6.937
	c0.732-0.673,0.85-1.881,0.262-2.683l-3.629-6.285c-0.401-0.911-1.505-1.413-2.454-1.115l-9.69,3.037
	c-1.718-2.065-3.616-3.972-5.665-5.708l3.027-9.658c0.298-0.949-0.204-2.054-1.115-2.454l-6.285-3.629
	c-0.802-0.589-2.01-0.471-2.683,0.262l-6.796,7.391c-2.502-0.919-5.111-1.615-7.795-2.09l-2.25-10.091
	c-0.217-0.971-1.204-1.922-2.193-1.922h-7.258c-0.989,0-1.976,0.951-2.193,1.922l-2.25,10.091c-2.685,0.475-5.293,1.171-7.795,2.09
	l-6.796-7.391c-0.673-0.732-1.881-0.85-2.683-0.262l-6.285,3.629c-0.911,0.401-1.413,1.505-1.115,2.454l3.027,9.658
	c-2.049,1.736-3.948,3.643-5.665,5.708l-9.69-3.037c-0.949-0.298-2.054,0.204-2.454,1.115l-3.629,6.285
	c-0.588,0.802-0.471,2.01,0.262,2.683l7.544,6.937c-0.88,2.473-1.55,5.045-1.998,7.693l-9.977,2.212
	c-0.971,0.217-1.657,1.204-1.657,2.193v7.258c0,0.989,0.686,1.976,1.657,2.193l10.091,2.237c0.476,2.587,1.156,5.103,2.045,7.519
	l-7.705,7.085c-0.732,0.673-0.85,1.881-0.262,2.683l3.629,6.285c0.401,0.911,1.505,1.413,2.454,1.115l10.108-3.168
	c1.65,1.929,3.454,3.723,5.398,5.356l-3.178,10.141c-0.298,0.949,0.204,2.054,1.115,2.455l6.285,3.629
	c0.802,0.589,2.01,0.471,2.683-0.262l7.225-7.857c2.348,0.836,4.785,1.481,7.29,1.929l2.326,10.117
	c0.217,0.971,1.204,1.275,2.193,1.275h7.258c0.989,0,1.976-0.195,2.193-1.166l2.301-10.221c2.515-0.448,4.96-1.094,7.315-1.933
	l7.225,7.857c0.673,0.732,1.881,0.85,2.683,0.262l6.285-3.629c0.911-0.401,1.413-1.505,1.115-2.455l-3.178-10.141
	c1.944-1.633,3.748-3.427,5.398-5.356l10.108,3.168c0.949,0.298,2.054-0.204,2.454-1.115l3.629-6.285
	c0.588-0.802,0.471-2.01-0.262-2.683l-7.705-7.085c0.889-2.416,1.569-4.932,2.045-7.519l10.091-2.237
	c0.971-0.217,1.657-1.204,1.657-2.193v-7.258C289.468,81.882,288.782,80.895,287.811,80.678z M270.637,86.193
	c0,5.09-1.005,9.944-2.814,14.384l-19.076-11.014c0.224-1.089,0.343-2.215,0.343-3.37c0-7.268-4.677-13.43-11.18-15.681V48.43
	C256.41,51.065,270.637,66.964,270.637,86.193z M236.072,86.193c0,1.982-1.607,3.589-3.589,3.589s-3.589-1.607-3.589-3.589
	c0-1.982,1.607-3.589,3.589-3.589S236.072,84.21,236.072,86.193z M227.056,48.43v22.082c-6.503,2.251-11.18,8.413-11.18,15.681
	c0,1.155,0.119,2.282,0.343,3.37l-19.076,11.014c-1.809-4.44-2.814-9.294-2.814-14.384C194.329,66.964,208.556,51.065,227.056,48.43
	z M232.483,124.346c-12.091,0-22.86-5.63-29.851-14.405l19.152-11.057c2.891,2.439,6.621,3.915,10.699,3.915
	s7.809-1.476,10.699-3.915l19.152,11.057C255.343,118.716,244.574,124.346,232.483,124.346z"/>
<path id="gear-2" class="gear-2" fill="#e67b3a" d="M176.809,65.462l-9.991-2.667c-0.084-2.502-0.35-4.956-0.783-7.353l9.277-4.716
	c0.98-0.499,1.452-1.744,1.113-2.787l-1.858-5.718c-0.339-1.043-1.452-1.773-2.539-1.601l-10.295,1.641
	c-1.077-2.208-2.308-4.326-3.681-6.34l6.616-8.154c0.692-0.855,0.617-2.184-0.117-2.999l-4.023-4.468
	c-0.734-0.815-2.048-1.029-2.97-0.43l-8.823,5.742c-1.851-1.559-3.815-2.987-5.877-4.273l2.748-10.217
	c0.285-1.063-0.325-2.246-1.327-2.692l-5.492-2.445c-1.002-0.446-2.289-0.107-2.888,0.815l-5.749,8.871
	c-2.297-0.665-4.659-1.174-7.077-1.511l-1.651-10.24c-0.172-1.086-1.21-1.67-2.307-1.67h-6.012c-1.097,0-2.135,0.583-2.307,1.67
	l-1.646,10.333c-2.42,0.325-4.784,0.758-7.084,1.411l-5.769-8.934C95.699,5.809,94.412,5.454,93.41,5.9l-5.492,2.438
	c-1.002,0.446-1.611,1.625-1.327,2.688l2.738,10.176c-2.07,1.276-4.042,2.694-5.901,4.244l-8.85-5.76
	c-0.923-0.599-2.236-0.385-2.97,0.43l-4.023,4.468c-0.734,0.815-0.809,2.144-0.117,2.999l6.597,8.13
	c-1.383,2.007-2.623,4.117-3.711,6.318l-10.337-1.648c-1.086-0.172-2.2,0.558-2.538,1.601l-1.858,5.718
	c-0.339,1.043,0.133,2.288,1.113,2.787l9.245,4.699c-0.445,2.396-0.725,4.849-0.821,7.35l-10.024,2.675
	c-1.063,0.285-1.783,1.404-1.668,2.495l0.628,5.979c0.115,1.091,1.052,2.036,2.15,2.093l10.247,0.527
	c0.581,2.45,1.337,4.83,2.258,7.129l-7.977,6.447c-0.855,0.692-1.057,2.008-0.509,2.957l3.006,5.207
	c0.548,0.95,1.789,1.432,2.816,1.038l9.488-3.653c1.531,2,3.208,3.88,5.014,5.63l-4.63,9.065c-0.499,0.98-0.149,2.264,0.738,2.909
	l4.864,3.534c0.887,0.645,2.217,0.581,2.995-0.197l7.12-7.134c2.215,1.207,4.529,2.253,6.927,3.125l-0.538,10.081
	c-0.058,1.099,0.785,2.129,1.857,2.357l5.881,1.25c1.073,0.228,2.261-0.371,2.655-1.398l3.6-9.406
	c1.298,0.099,2.605,0.166,3.928,0.166c1.236,0,2.457-0.06,3.67-0.146l3.613,9.439c0.394,1.027,1.583,1.626,2.655,1.398l5.881-1.25
	c1.073-0.228,1.915-1.259,1.857-2.357l-0.537-10.051c2.402-0.86,4.722-1.891,6.942-3.086l7.147,7.161
	c0.778,0.778,2.107,0.842,2.995,0.197l4.864-3.534c0.887-0.645,1.237-1.929,0.738-2.909l-4.614-9.034
	c1.814-1.741,3.5-3.613,5.041-5.605l9.523,3.666c1.027,0.394,2.268-0.088,2.816-1.038l3.006-5.207
	c0.548-0.95,0.346-2.265-0.509-2.958l-7.947-6.423c0.933-2.295,1.702-4.672,2.295-7.119l10.278-0.529
	c1.098-0.058,2.036-1.003,2.15-2.093l0.628-5.979C178.591,66.867,177.871,65.747,176.809,65.462z M108.967,64.536
	c0-3.876,3.142-7.018,7.018-7.018s7.018,3.142,7.018,7.018c0,3.876-3.142,7.018-7.018,7.018S108.967,68.412,108.967,64.536z"/>
<path id="gear-3" class="gear-3" fill="#CCCCCC" d="M53.245,77.763l-5.291-4.059c0.211-1.035,0.323-2.106,0.323-3.203c0-0.877-0.09-1.73-0.226-2.569
	l5.278-4.049c0.871-0.67,1.102-1.905,0.591-2.79l-2.333-4.041c-0.511-0.885-1.696-1.303-2.712-0.883l-5.938,2.46
	c-1.506-1.343-3.265-2.399-5.201-3.095l-0.839-6.127c-0.144-1.089-1.099-1.657-2.121-1.657H30.11c-1.022,0-1.976,0.568-2.121,1.657
	l-0.831,6.188c-1.947,0.674-3.72,1.648-5.241,2.974l-5.99-2.513c-1.015-0.42-2.201-0.018-2.712,0.867l-2.333,4.033
	c-0.511,0.885-0.28,2.116,0.591,2.786l5.223,4.005c-0.157,0.897-0.254,1.813-0.254,2.754c0,1.032,0.106,2.038,0.294,3.016
	l-5.346,4.101c-0.871,0.669-1.102,1.905-0.591,2.79l2.333,4.041c0.511,0.885,1.696,1.303,2.712,0.883l6.316-2.617
	c1.399,1.17,3.008,2.09,4.754,2.726l0.908,7.153c0.144,1.089,1.099,2.157,2.121,2.157h4.666c1.022,0,1.976-1.068,2.121-2.157
	l0.9-6.964c1.754-0.616,3.373-1.581,4.786-2.733l6.376,2.611c1.015,0.419,2.201-0.014,2.712-0.899l2.333-4.049
	C54.348,79.675,54.116,78.432,53.245,77.763z M32.36,76.917c-3.544,0-6.417-2.873-6.417-6.417s2.873-6.417,6.417-6.417
	s6.417,2.873,6.417,6.417S35.904,76.917,32.36,76.917z"/>
</svg>	