<svg xmlns="http://www.w3.org/2000/svg" viewBox="3999.038 1622.962 69.425 69.5">
  <defs>
    <style>
      .cls-1 {
        fill: #fff;
      }
    </style>
  </defs>
  <g id="magnet" transform="translate(4084.537 1606.987) rotate(90)">
    <path id="Path_23" data-name="Path 23" class="cls-1" d="M64.4,23.4h0l-.1-.1-5.5-5.5a6.1,6.1,0,0,0-8.5,0L46.1,22a6.1,6.1,0,0,0,0,8.5l5.2,5.2c.1.1.2.3.3.4a1.38,1.38,0,0,0,.4.3L64.5,48.9A11.031,11.031,0,0,1,48.9,64.5L36.3,51.9a1.38,1.38,0,0,1-.3-.4c-.1-.2-.2-.2-.4-.3L30.4,46a6.1,6.1,0,0,0-8.5,0l-4.2,4.2a6.1,6.1,0,0,0,0,8.5l5.4,5.4.1.1.1.1L36,77A28.991,28.991,0,1,0,77,36ZM48.9,24.8l4.2-4.2a1.933,1.933,0,0,1,2.8,0L60,24.7l-7,7-4.1-4.1A1.933,1.933,0,0,1,48.9,24.8ZM20,54.5a1.974,1.974,0,0,1,.6-1.4l4.2-4.2a1.933,1.933,0,0,1,2.8,0L31.7,53l-7,7-4.1-4.1A1.974,1.974,0,0,1,20,54.5ZM74.3,74.3a25.048,25.048,0,0,1-35.3,0L27.6,62.9l7-7L46,67.3A15.061,15.061,0,0,0,67.3,46L55.9,34.6l7-7L74.3,39A24.867,24.867,0,0,1,74.3,74.3Z"/>
  </g>
</svg>
