<svg xmlns="http://www.w3.org/2000/svg" viewBox="4638 1622.77 43.811 69.844">
  <defs>
    <style>
      .cls-1 {
        fill: #fff;
        fill-rule: evenodd;
      }
    </style>
  </defs>
  <g id="download_1_" data-name="download (1)" transform="translate(4611.3 1606.67)">
    <g id="Group_63" data-name="Group 63" transform="translate(26.7 16.1)">
      <path id="Path_24" data-name="Path 24" class="cls-1" d="M22.669,3.91a4.313,4.313,0,0,1,4.318,3.683,3.734,3.734,0,0,0,3.556,3.048,21.8,21.8,0,0,1,3.3.635c4.7,1.143,3.429,5.841,3.429,6.349-.127.381-.508,3.683-4.7,3.683a12.662,12.662,0,0,1-2.032-.254,27.484,27.484,0,0,0-6.1-.762c-4.572,0-5.968,1.651-5.968,3.3,0,1.9,2.667,3.429,9.016,5.714C37.146,32.482,40.7,36.8,40.7,43.784c0,6.1-3.81,11.3-10.667,13.715a4.554,4.554,0,0,0-3.556,4.318c0,2.921-.762,4.445-4.191,4.445s-4.572-1.651-4.572-2.413.127-4.7-3.556-5.08c-1.016-.127-2.032-.381-2.921-.508-2.794-.635-6.857-3.3-5.714-7.492a4.548,4.548,0,0,1,4.826-3.429,11.87,11.87,0,0,1,3.175.508,29.8,29.8,0,0,0,6.857.889c3.81,0,6.6-1.016,6.6-3.556,0-2.413-2.286-3.81-8-5.587-8.381-2.667-14.223-6.6-14.223-14.35,0-5.968,3.683-10.54,10.032-13.334a5.351,5.351,0,0,0,3.429-4.572c0-1.016.889-3.429,4.445-3.429Zm0-3.81C17.462.1,14.8,3.529,14.288,6.83a1.61,1.61,0,0,1-1.27,1.524C5.018,11.91.7,17.878.7,25.117c0,11.3,9.651,15.62,16.889,18.032a29.414,29.414,0,0,1,4.318,1.524,7.266,7.266,0,0,1-1.778.127,23.818,23.818,0,0,1-5.841-.762,16.733,16.733,0,0,0-4.064-.635,8.277,8.277,0,0,0-8.508,6.222A8.959,8.959,0,0,0,2.6,56.61a11.664,11.664,0,0,0,7.619,5.207l.508.127a19.026,19.026,0,0,0,3.048.508h0a7.019,7.019,0,0,1,.127,1.143v.127c0,3.048,2.921,6.222,8.381,6.222,6.984,0,8-5.207,8-8.254v-.127s.127-.254,1.016-.508c8.254-2.921,13.207-9.4,13.207-17.27,0-9.016-4.826-14.6-15.747-18.159-1.778-.635-3.048-1.143-4.064-1.524a27.655,27.655,0,0,1,5.08.635,22.807,22.807,0,0,0,2.794.254c4.445,0,7.619-2.54,8.381-6.6h0c1.27-5.334-1.27-9.651-6.1-10.921-1.143-.254-2.286-.508-3.81-.762h-.381a7.924,7.924,0,0,0-8-6.6Z" transform="translate(-0.7 -0.1)"/>
    </g>
  </g>
</svg>
