<svg xmlns="http://www.w3.org/2000/svg" viewBox="248.978 1884.487 52.632 52.632">
  <defs>
    <style>
      .cls-1 {
        fill: #0098d1;
      }

      .cls-2 {
        fill: #fff;
      }
    </style>
  </defs>
  <g id="quote" transform="translate(248.978 1884.487)">
    <path id="Path_11" data-name="Path 11" class="cls-1" d="M26.316,0A26.316,26.316,0,1,1,0,26.316,26.316,26.316,0,0,1,26.316,0Z" transform="translate(0 0)"/>
    <path id="Path_10" data-name="Path 10" class="cls-2" d="M.07-61.714c.25.583-.166,1.665.083,2.414,0,.083-.166.083-.166.083.25.166,0,.583-.083.749.25,0,.166-.333.333-.333a7.387,7.387,0,0,1-.25,1.165c.333-.083.083.083.333.166.166-.166-.166-.333.083-.416.166.166,0,.333,0,.583.083,0,.166,0,.166.083-.166.25-.166.749-.416.666.166.166-.333.832-.166.916A2.486,2.486,0,0,0,.57-57.885c.416-.5.25-1.082.333-1.748a7.453,7.453,0,0,0,.166-1.914.082.082,0,0,1,.083-.083,12.6,12.6,0,0,1,.25-2.663c.083-.083.166-.083.25-.166-.083-.25.083-.333-.083-.583h.166c-.166-.666.5-1.165.25-2.081.25,0,.25-.583.166-.832.333-.166.166-.916.5-1.165-.083-.583,0-1.165-.083-2.247A1.262,1.262,0,0,0,1.9-71.7c0-.333-.25-.333-.166-.666A3.407,3.407,0,0,0-.346-72.95c-.166,0-.083-.166-.25-.25a5.778,5.778,0,0,0-1.082.416c-.083,2.331-.832,5.66-1,8.157,0-.166.083.083.166.083,0-.166-.166-.083-.166-.25.166.083.25-.25.333-.25-.083,0-.166,0-.166-.083.083-.166.416-.333.25-.583-.083.083-.083.166-.166,0a.55.55,0,0,0,.083-.5c.5-.083.083-.333.333-.666-.083,0-.083.083-.083-.083h.083c-.083-.166.25-.166.25-.083-.25.25.25.832-.166,1.082a.179.179,0,0,1,.166.166,1.149,1.149,0,0,1-.25.333c.166.166,0,.333.083.583.166,0,.166-.166.25-.166,0,.166.083.166.083.25.166.083.083-.25.25-.166.083.416-.25.166-.416.333.083.25.166.5-.083.583,0,.083,0,.25-.166.166.083.5-.25.666-.333,1,.25.083.25.25.416.333a6.309,6.309,0,0,0-.5,1.332c.25.083.166-.166.333-.166-.083.416-.083.5-.25.666-.083.166.166.166.083.333-.166-.166-.166.25-.333.333,0-.083,0-.5-.083-.333,0,.083.083.25,0,.25v.166c.333.083.166-.333.5-.333a.9.9,0,0,0-.083.5h-.25a.965.965,0,0,1-.333.832c.083,0,.083.083.166.166-.416,0,0,.583-.25.583-.166.083-.083-.166-.166-.166,0,.166-.166.166-.166.333.25.166-.083.5.166.666-.333.416.166,1.082-.083,1.581.166,0,.25,0,.25.083a7.292,7.292,0,0,0,0,2.331c.25.166.25.916.333,1.165a.082.082,0,0,1,.083-.083c0,.083,0,.083-.083.083.083.25.166.083.25.166.083.5.749,1,1.165,1.415a1.751,1.751,0,0,0,.416-1.249c.166,0,.166-.083.166-.166.083,0,.166.083.25.083a3.513,3.513,0,0,0-.25-1c.083,0,.083-.083.083-.166A3.7,3.7,0,0,1-.6-54.805c-.416-.333.166-.832-.166-1.249H-.6c-.166-.333-.25-.832.083-.916a4.96,4.96,0,0,1,.083-2.5c-.166-.083.083-.333-.083-.666,0-.166.166-.083.166-.25,0,0-.166,0-.166-.083.083-.166.083-.416.333-.416a3.208,3.208,0,0,1,.166-1.581C.07-62.213-.013-61.88.07-61.714Zm-2-6.659c0-.166.25-.25.25,0Zm.166.416c-.166-.083.083-.25,0-.333C-1.511-68.289-1.761-68.123-1.761-67.956Zm.416-.166c0-.166.25-.083.25-.166.166,0,.166.166.166.333h-.416C-1.261-68.04-.928-68.123-1.345-68.123Zm-.749.916c0-.25.25-.25.166-.5.25.083,0,.416.333.166C-1.594-67.207-1.927-67.041-2.094-67.207Zm2.5.333c-.083-.166,0-.25,0-.333C.653-67.207.57-66.874.4-66.874Zm-1.914.083c-.166-.083-.083-.416.083-.333-.083,0,.25.5-.083.583,0-.083.166-.083.083-.25h-.083c0,.166-.25.083-.25,0C-1.761-66.957-1.678-66.791-1.511-66.791Zm.166-.166C-1.261-67.207-1.261-66.791-1.345-66.957Zm.5.166C-1.012-66.874-.512-66.874-.845-66.791Zm-1.415.416C-2.177-66.625-2.177-66.208-2.26-66.375Zm1.082.666c0-.083.083-.166.083-.25.166,0,.083.166.166.166C-.928-65.709-1.012-65.709-1.178-65.709ZM.237-63.378c.25.333-.25.333-.25.749-.25-.333.25-.916-.166-1.165.5-.416.083-1.165.416-1.914a11.114,11.114,0,0,1,0,1.665c0,.166-.166.166-.25.166.166.166.083.5.25.5,0-.166,0-.5.166-.583A.478.478,0,0,1,.237-63.378ZM-.6-65.459C-.512-65.709-.512-65.21-.6-65.459Zm-1.165.333C-1.511-65.293-1.844-64.96-1.761-65.126Zm1,.583a.5.5,0,0,1,.333-.083c0,.083,0,.166.083.166,0,.166-.333-.083-.25.083C-.679-64.377-.6-64.544-.762-64.544Zm0,.916c.083-.083.083-.166.166-.166C-.6-63.711-.6-63.628-.762-63.628Zm0,.166v-.166H-.6C-.6-63.462-.679-63.462-.762-63.462Zm-.666.333v-.25h.083v.25Zm-.583.25Zm2.081.5c.083-.083.083-.333.166-.5C.32-62.8.32-62.3.07-62.38ZM-2.094-60.8c-.083,0,0-.083,0,0C-2.01-60.8-2.01-60.715-2.094-60.8Zm1,.416c0,.083-.25,0-.083-.083A.082.082,0,0,0-1.095-60.382Zm.166.333c0,.083-.083,0-.083.083A.082.082,0,0,1-.928-60.049Zm-.083.416C-.928-59.883-.928-59.383-1.012-59.633Zm-.083,1.748C-.845-57.718-1.261-57.718-1.095-57.885Zm-1.415.666c-.166,0-.083-.25-.083-.333C-2.427-57.552-2.593-57.386-2.51-57.219Zm1.082-.25h0Zm.166,0Zm.083,1.665C-1.095-56.054-1.095-55.554-1.178-55.8Zm-.083,1.082c-.083,0,0-.166-.166-.166C-1.345-55.055-1.178-54.805-1.261-54.722Zm0,.5ZM-7-58.8a1.514,1.514,0,0,1,.666-1.332c-.083-.5.166-1,0-1.581.083,0,.166,0,.166-.083-.083,0,0-.166-.083-.25a9.091,9.091,0,0,0,.916-4.411c.083-.166.25-.166.25-.333a16.25,16.25,0,0,1,.583-3.246c-.083,0-.083,0-.083-.083a3.629,3.629,0,0,1-.916-.749A16.229,16.229,0,0,0-9-71.535c0,.083,0,.166-.083.166a1.07,1.07,0,0,0-.583-.083c.083.416-.416.166-.583.333.166.333-.166.666.083.832-.166.166-.333.749-.083.916-.416.583-.166,1.165-.333,1.581.083.083.25.083.333.25-.166,0-.25.083-.25.166l.166.166c-.083.083-.25,0-.25.083.083.25.25.666,0,.916.083,0,.25,0,.166.083,0,.25-.25.083-.25.25.25-.083.083.166.166.25-.083.166-.083.333-.166.5.083.083.083.333.166.416a14.483,14.483,0,0,0-.083,3.829c-.166,0,0,.166-.166.333,0,.166.166-.083.25.083,0,.166-.25.166-.25.333.166.166-.083.749.25,1.165a1.183,1.183,0,0,0-.166.5c0,.166,0,.416.166.5a1.231,1.231,0,0,0,0,1.082c-.166.166.083.666.166.832a15.375,15.375,0,0,0,1.581,4.661c.416-.749,0-1.5.666-2.164v-.583h.166c0-.749.25-1.332.333-2.164-.25-.416.083-1,.166-1.581a1.682,1.682,0,0,1,0-1.415.749.749,0,0,1,.083-.832C-7.171-59.883-7.421-59.133-7-58.8Zm-3.413-5.66C-10.334-64.71-10.334-64.211-10.417-64.46Zm0,.5c-.083-.083.083-.25.083-.333C-10.167-64.294-10.417-64.044-10.417-63.961Zm.25-.166c0,.083-.083,0-.083.083C-10.251-64.128-10.251-64.128-10.167-64.128Zm-.25.25C-10.251-64.044-10.251-63.545-10.417-63.878Zm.083.416a.291.291,0,0,1-.083-.166c.166,0,.166.333-.083.333A.179.179,0,0,1-10.334-63.462Zm.083.166c0,.083-.083.083-.166.083C-10.417-63.3-10.334-63.212-10.251-63.3Zm-.166.25C-10.167-63.045-10.5-62.713-10.417-63.045Zm0,.25Zm.083,1c-.166-.166-.083-.666-.083-.916C-10.251-62.463-10.334-62.13-10.334-61.8Zm0,4.328c-.083,0-.083-.083-.083-.166.083,0,.083.083.166.166Zm2.414-.166c0,.083-.083.083-.166.083C-8.087-57.635-8-57.635-7.92-57.635Zm5.91-9.322v.083C-1.927-66.874-1.927-66.957-2.01-66.957Zm-.25,1.249c.166.083.166-.166.083-.166C-2.177-65.792-2.26-65.792-2.26-65.709Zm.333.916c0,.083-.083.166,0,.166C-1.844-64.71-1.844-64.793-1.927-64.793Zm-.832.333c0,.083.083.083.083,0C-2.76-64.377-2.76-64.544-2.76-64.46Zm.832.083s.166,0,.166-.083C-1.844-64.377-1.927-64.46-1.927-64.377Zm-.083.166C-1.844-64.377-2.01-63.711-2.01-64.211Zm-.5.416c-.166,0,0-.333-.166-.333a.892.892,0,0,0-.166.5C-2.76-63.628-2.51-63.628-2.51-63.795Zm.666-.25C-1.844-64.128-1.927-64.044-1.844-64.044Zm-.666.166c.083-.083.083-.166,0-.166C-2.51-64.044-2.593-63.878-2.51-63.878Zm0,0v.083C-2.427-63.711-2.427-63.878-2.51-63.878Zm-.166.333C-2.593-63.545-2.676-63.628-2.676-63.545Zm0,0c-.416.083-.083.666-.25.916C-2.593-62.713-2.76-63.129-2.676-63.545Zm2.747.5Zm-2.747.083Zm-.25.583Zm.25,2.247c-.083-.166-.083-.5-.25-.666,0-.083.083-.083.166-.083-.25-.416.083-1-.083-1.5-.333.916-.083,1.581-.25,2.83C-2.843-59.55-2.926-59.966-2.676-60.132Zm-.25-.083c0-.083.083-.166,0-.333C-2.76-60.548-2.76-60.132-2.926-60.216Zm.25-2.081v.083h.083V-62.3Zm0,.416Zm2.747.166c-.166-.083-.166.166-.083.166C-.013-61.63.07-61.63.07-61.714Zm-2.747.083Zm-.083.166C-2.676-61.714-2.676-61.214-2.76-61.464Zm2.663.25v.083h.083v-.083Zm0,.333C-.013-61.131-.013-60.632-.1-60.881ZM-2.843-59.8Zm2.663.166a1.418,1.418,0,0,0,0,.832C-.1-58.967-.013-59.466-.179-59.633Zm-3,.416h0Zm2.83.5C-.346-58.634-.429-58.717-.346-58.717Zm.166.333C-.179-58.3-.263-58.384-.179-58.384Zm0,.166c0,.083-.166.25,0,.416C-.263-57.968-.013-58.135-.179-58.218Zm.166,0C-.013-58.135-.1-58.218-.013-58.218Zm-3.246.166C-3.342-57.968-3.259-57.968-3.259-58.051Zm3,.666c.083.333-.166.583.083.749C-.179-56.969-.1-57.386-.263-57.386Zm.333.166C-.1-57.053-.013-57.552.07-57.219Zm0,0c.083,0,.083.083.083.166H.32c0-.083.083-.083.083-.166C.237-57.219.154-57.386.07-57.219Zm.166.333c-.083.083-.166.083,0,.166C.237-56.8.32-56.886.237-56.886Zm-3.5.083C-3.259-56.72-3.342-56.8-3.259-56.8Zm3.246.5C.07-56.3-.013-56.387-.013-56.3Zm-3.329.25ZM-8-53.973v.25h.166C-7.837-53.89-7.92-53.973-8-53.973ZM-.6-51.892c.083,0,.166,0,.166-.083C-.512-51.975-.6-51.975-.6-51.892Zm.25.083C-.263-51.809-.346-51.892-.346-51.809Z" transform="translate(30.299 88.238)"/>
  </g>
</svg>
